<svg xmlns="http://www.w3.org/2000/svg" width="24.976" height="25.024" viewBox="0 0 24.976 25.024">
  <path id="Path_278" data-name="Path 278" d="M591.967,106.068a1.278,1.278,0,0,1,.684,1.124v.244l-1.173,5.083a1.147,1.147,0,0,1-1.124.88,22.632,22.632,0,0,1-22.679-22.678,1.147,1.147,0,0,1,.88-1.124l5.083-1.173a2.1,2.1,0,0,0,.244-.049,1.235,1.235,0,0,1,1.124.733l2.346,5.474a1.422,1.422,0,0,1,.1.44,1.211,1.211,0,0,1-.44.929l-2.981,2.444a18.134,18.134,0,0,0,8.651,8.651l2.444-2.981a1.189,1.189,0,0,1,.88-.44,1.444,1.444,0,0,1,.489.1Z" transform="translate(-567.675 -88.375)" fill="#fff"/>
</svg>
