<svg xmlns="http://www.w3.org/2000/svg" width="123.029" height="74.929" viewBox="0 0 123.029 74.929">
  <g id="Group_13" data-name="Group 13" transform="translate(13539.869 12115.574)">
    <path id="Subtraction_3" data-name="Subtraction 3" d="M9.4,21.3a10.021,10.021,0,0,1-2.771-.359,8.222,8.222,0,0,1-1.306-.494A8.306,8.306,0,0,1,4.074,19.7a8.971,8.971,0,0,1-2.658-3.063A11.835,11.835,0,0,1,.16,12.759,14.409,14.409,0,0,1,0,10.339,13.674,13.674,0,0,1,.267,7.906,12,12,0,0,1,.985,5.577a10.266,10.266,0,0,1,1.2-2.106A8.715,8.715,0,0,1,3.426,2.125a8.066,8.066,0,0,1,1.421-1,8.955,8.955,0,0,1,1.6-.682A11.565,11.565,0,0,1,8.222.041C8.6.014,8.965,0,9.312,0a10.218,10.218,0,0,1,2.794.356A8.157,8.157,0,0,1,14.686,1.6,8.911,8.911,0,0,1,17.328,4.66a11.252,11.252,0,0,1,.793,1.874,13.017,13.017,0,0,1,.469,1.99,14.153,14.153,0,0,1-.088,4.84,12.061,12.061,0,0,1-.7,2.334,10.04,10.04,0,0,1-1.184,2.1,8.66,8.66,0,0,1-1.242,1.355,8.1,8.1,0,0,1-1.431,1,9.025,9.025,0,0,1-1.612.687,11.581,11.581,0,0,1-1.784.408C10.151,21.28,9.766,21.3,9.4,21.3ZM9.337,1.317A10.529,10.529,0,0,0,8.084,1.4a9.292,9.292,0,0,0-1.489.461,7.521,7.521,0,0,0-1.316.694A7.063,7.063,0,0,0,4.137,3.5a7.845,7.845,0,0,0-.97,1.225A9.78,9.78,0,0,0,2.193,6.7a11.2,11.2,0,0,0-.539,2.16,12.207,12.207,0,0,0,.164,4.417,11.035,11.035,0,0,0,.513,1.666A9.6,9.6,0,0,0,3.117,16.5a7.505,7.505,0,0,0,2.431,2.448,6.911,6.911,0,0,0,1.839.779,7.767,7.767,0,0,0,1.988.255,8.07,8.07,0,0,0,1.247-.1,8.52,8.52,0,0,0,1.467-.415,7.3,7.3,0,0,0,1.309-.662,7.019,7.019,0,0,0,1.144-.917,7.672,7.672,0,0,0,.972-1.182,9.561,9.561,0,0,0,.988-1.933,11.18,11.18,0,0,0,.567-2.124A12.245,12.245,0,0,0,17,8.294a11.23,11.23,0,0,0-.476-1.687,9.816,9.816,0,0,0-.749-1.583,7.713,7.713,0,0,0-2.365-2.542,6.816,6.816,0,0,0-1.966-.895A7.956,7.956,0,0,0,9.337,1.317Z" transform="translate(-13456.512 -12073.687)" fill="#1963ac"/>
    <path id="Subtraction_2" data-name="Subtraction 2" d="M9.055,21.34a9.875,9.875,0,0,1-2.7-.362,8.08,8.08,0,0,1-2.469-1.171,8.368,8.368,0,0,1-2.451-2.766,10.261,10.261,0,0,1-.757-1.7,11.448,11.448,0,0,1-.456-1.809,15.789,15.789,0,0,1,0-5.232,13,13,0,0,1,.7-2.542A10.488,10.488,0,0,1,2.15,3.472a8.569,8.569,0,0,1,1.165-1.32,7.789,7.789,0,0,1,1.344-.988A9.442,9.442,0,0,1,7.883.051,11.319,11.319,0,0,1,9.041,0l.3,0a9.156,9.156,0,0,1,3.29.633A7.843,7.843,0,0,1,15.406,2.5a8.375,8.375,0,0,1,1.329,1.834A9.933,9.933,0,0,1,17.55,6.4a15.84,15.84,0,0,1,.49,4.462l-16.522.005a13.143,13.143,0,0,0,.112,1.77A11.526,11.526,0,0,0,2,14.382a8.742,8.742,0,0,0,1.626,3.134,6.878,6.878,0,0,0,2.134,1.729A6.966,6.966,0,0,0,8.4,20c.244.02.488.031.724.031a7.677,7.677,0,0,0,1.41-.128,7.232,7.232,0,0,0,1.314-.378,8.739,8.739,0,0,0,2.417-1.474,8.489,8.489,0,0,0,1.308-1.921,12.516,12.516,0,0,0,.8-2.182h.081c.116,0,.226,0,.337,0a4.82,4.82,0,0,1,.948.077l.013.03a.355.355,0,0,1,.024.062,1.908,1.908,0,0,1-.068.856,8.07,8.07,0,0,1-.389,1.125,11.7,11.7,0,0,1-.986,1.891,7.37,7.37,0,0,1-2.294,2.12,8.677,8.677,0,0,1-2.946,1.063A11.893,11.893,0,0,1,9.055,21.34Zm-.2-20.028H8.761a7.771,7.771,0,0,0-2.788.78,6.685,6.685,0,0,0-1.186.774A7.564,7.564,0,0,0,3.73,3.926,9.16,9.16,0,0,0,2.238,6.564,12.675,12.675,0,0,0,1.55,9.526c1.827.022,3.686.033,5.527.033.79,0,1.576,0,2.338-.006L16.5,9.541A14.179,14.179,0,0,0,16.25,7.7a10.294,10.294,0,0,0-.522-1.742,8.062,8.062,0,0,0-.854-1.589A7.294,7.294,0,0,0,13.625,3a6.882,6.882,0,0,0-2.233-1.276A7.782,7.782,0,0,0,8.853,1.312Z" transform="translate(-13520.114 -12073.703)" fill="#1963ac"/>
    <path id="Path_78" data-name="Path 78" d="M873.015,772.669c.686-.019,1.374-.015,2.061-.022,1.8,6.25,3.729,12.468,5.6,18.7,2.059-6.172,3.864-12.463,5.751-18.691l1.7-.009-.49,1.564c-2.093,6.242-4.008,12.546-6.067,18.8-.633.014-1.269.009-1.9.012-.556-2.185-1.3-4.355-1.955-6.515l-3.66-11.984-5.662,18.5-1.944-.007c-1.935-6.822-4.321-13.56-6.433-20.335.532-.037,1.074-.03,1.608-.041,2.075,6.207,3.88,12.534,5.835,18.782.551-2.241,1.29-4.46,1.95-6.672Z" transform="translate(-14360.072 -12845.872)" fill="#1963ac"/>
    <path id="Path_79" data-name="Path 79" d="M1396.765,768.872a12.763,12.763,0,0,1,1.323-.062,7.037,7.037,0,0,1,5.064,1.818,6.5,6.5,0,0,1,1.633,3.141,31.534,31.534,0,0,1,.33,7.007l-.006,8.9-1.531-.017V780.98a50.035,50.035,0,0,0-.087-5.766,6.938,6.938,0,0,0-.646-2.32,4.73,4.73,0,0,0-2.768-2.437,7.831,7.831,0,0,0-5.869.583,7.331,7.331,0,0,0-1.4,1.08c-2.825,2.857-2.376,7.157-2.37,10.841l.016,6.727-1.518.013V769.3l1.515.007-.017,4.372a10.4,10.4,0,0,1,.932-1.654A7.754,7.754,0,0,1,1396.765,768.872Z" transform="translate(-14823.16 -12842.519)" fill="#1963ac"/>
    <path id="Path_80" data-name="Path 80" d="M548.183,768.908q.39-.039.783-.045a7.447,7.447,0,0,1,5.606,1.769,6.441,6.441,0,0,1,1.682,3.176,33.081,33.081,0,0,1,.317,7.258l.011,8.649-1.558.014c.024-3.171.449-14.251-.575-16.535a4.932,4.932,0,0,0-2.787-2.636,7.684,7.684,0,0,0-5.771.4,7.384,7.384,0,0,0-1.6,1.184c-2.834,2.832-2.4,7.143-2.4,10.813l.016,6.76-1.5.027,0-13.5a66.094,66.094,0,0,1,.037-6.692c.318-.286.932-.194,1.346-.178.266.4.135,3.645.142,4.384a8.682,8.682,0,0,1,.846-1.647A7.826,7.826,0,0,1,548.183,768.908Z" transform="translate(-14080.184 -12842.562)" fill="#1963ac"/>
    <g id="Group_12" data-name="Group 12" transform="translate(-13494.342 -12115.574)">
      <path id="Path_77" data-name="Path 77" d="M954.435,443.072c1.032,1.041,2.909,4.6,3.83,6.032l13.448,21.181a19.973,19.973,0,0,1-4.254,2.7c-.356-.212-15.653-24.544-17.32-27.155A22.134,22.134,0,0,1,954.435,443.072Z" transform="translate(-944.637 -441.747)" fill="#999799"/>
      <path id="Path_81" data-name="Path 81" d="M910.541,471.939c.3.369.156,20.3.157,22.9a23.145,23.145,0,0,1-2.075-2.541,16.347,16.347,0,0,1,1.919-20.361Z" transform="translate(-905.933 -467.021)" fill="#1963ac"/>
      <path id="Path_82" data-name="Path 82" d="M1129.589,471.743c2.06,1.63,3.56,4.8,4.205,7.283a16.614,16.614,0,0,1-2.019,12.879,20.809,20.809,0,0,1-2.138,2.694c-.132-3.021-.044-6.082-.047-9.108C1129.585,480.909,1129.541,476.324,1129.589,471.743Z" transform="translate(-1101.732 -466.85)" fill="#00a99c"/>
      <path id="Path_83" data-name="Path 83" d="M951.854,595.7a18.433,18.433,0,0,1,1.872,3.051c1.757,3.032,3.463,6.058,5.026,9.2a20.842,20.842,0,0,1-4-.412,17.5,17.5,0,0,1-7.536-3.96C948.78,600.958,950.379,598.359,951.854,595.7Z" transform="translate(-942.082 -575.377)" fill="#1963ac"/>
      <path id="Path_84" data-name="Path 84" d="M1033.75,432.426a17.272,17.272,0,0,1,11.575,4.444c-.921,1.59-1.881,3.162-2.82,4.742l-1.874,3.116C1038.255,440.661,1035.906,436.617,1033.75,432.426Z" transform="translate(-1017.842 -432.426)" fill="#00a99c"/>
    </g>
    <path id="Subtraction_1" data-name="Subtraction 1" d="M4.374,8.971a4.256,4.256,0,0,1-1.886-.38A4.158,4.158,0,0,1,1.128,7.57,4.427,4.427,0,0,1,.27,6.1,4.841,4.841,0,0,1,.5,2.362,4.1,4.1,0,0,1,1.72.884,6.028,6.028,0,0,1,3.44.023C3.68.008,3.888,0,4.077,0A4.887,4.887,0,0,1,5.146.106a3.684,3.684,0,0,1,1.035.4A4.392,4.392,0,0,1,8.225,3.2,5.044,5.044,0,0,1,8.36,5.1a4.845,4.845,0,0,1-.205.93,4.514,4.514,0,0,1-.389.869A4.176,4.176,0,0,1,6.549,8.224a4.993,4.993,0,0,1-1.65.73C4.706,8.966,4.534,8.971,4.374,8.971ZM3.934.787h0a4.2,4.2,0,0,0-1.4.518A3.461,3.461,0,0,0,1.461,2.352,3.709,3.709,0,0,0,.9,3.786,4.144,4.144,0,0,0,.923,5.329a3.759,3.759,0,0,0,.536,1.293,3.484,3.484,0,0,0,.982,1,3.343,3.343,0,0,0,1.941.553c.083,0,.17,0,.259-.006a4.589,4.589,0,0,0,1.4-.609,3.336,3.336,0,0,0,1.027-1.12,3.93,3.93,0,0,0,.365-3,3.754,3.754,0,0,0-.639-1.3A3.488,3.488,0,0,0,5.7,1.193,3.716,3.716,0,0,0,3.934.787Z" transform="translate(-13534.912 -12049.67)" fill="#999799"/>
    <path id="Path_87" data-name="Path 87" d="M1114.32,721.811c.5-.009,1.008,0,1.512.007l-.011,6.337c1.166,0,3.426-.336,4.411.229a.857.857,0,0,1,.056.252.805.805,0,0,1-.2.73,23.76,23.76,0,0,1-4.269.075l-.006,9.811c0,1.622-.086,3.3.048,4.914a4.124,4.124,0,0,0,.5,1.975c.86,1.117,2.3.871,3.5,1.092.333.061.324.094.5.369l-.147.784a1.546,1.546,0,0,1-.991.181,5.169,5.169,0,0,1-3.883-1.235,3.771,3.771,0,0,1-.917-2.123,34.97,34.97,0,0,1-.124-5.539l.019-10.228c-.793-.012-3.236.3-3.777-.191a1.093,1.093,0,0,1,.126-.833c.777-.569,2.665-.283,3.643-.27Z" transform="translate(-14579.396 -12801.367)" fill="#1963ac"/>
    <path id="Path_88" data-name="Path 88" d="M663.1,961.962a4.718,4.718,0,0,1,2.894.5,3.906,3.906,0,0,1,1.541,1.8l-.133.13c-.96.032-1.339-.822-2.054-1.318a2.729,2.729,0,0,0-2.062-.29,3.566,3.566,0,0,0-2.267,1.657,3.84,3.84,0,0,0-.443,2.953,3.883,3.883,0,0,0,1.849,2.373,3.291,3.291,0,0,0,2.485.185,4.057,4.057,0,0,0,2.283-2.366l-1.455-.009c-.614,0-2.6.177-3.016-.146-.02-.295-.051-.324.121-.558a27.836,27.836,0,0,1,5.286-.078,6.8,6.8,0,0,1-.492,1.685,4.3,4.3,0,0,1-2.418,2.288,4.1,4.1,0,0,1-3.063-.259,4.706,4.706,0,0,1-2.042-6.24A4.838,4.838,0,0,1,663.1,961.962Z" transform="translate(-14184.63 -13011.609)" fill="#999799"/>
    <path id="Path_89" data-name="Path 89" d="M1191.462,962.635a9.776,9.776,0,0,1,3.812.3,2.583,2.583,0,0,1,1.486,1.536,2.932,2.932,0,0,1-.23,2.221,2.869,2.869,0,0,1-1.98,1.474c.459.652,1.964,2.356,1.91,3.119-.1.083-.161.184-.3.158-.92-.172-2.47-3.047-3.01-3.879a1.841,1.841,0,0,1,1.085-.188,2.482,2.482,0,0,0,1.1-.457,1.934,1.934,0,0,0,.8-1.35,1.87,1.87,0,0,0-.573-1.328c-.91-.926-2.149-.808-3.331-.792,0,1.112.2,7.438-.18,7.886l-.411-.024C1191.24,970.729,1191.462,963.773,1191.462,962.635Z" transform="translate(-14650.215 -13012.187)" fill="#999799"/>
    <path id="Path_90" data-name="Path 90" d="M920.712,962.025a4.534,4.534,0,0,1,2.9.6,3.061,3.061,0,0,1,1.348,1.628c-.393.262-2.511-1.467-3.686-1.462a3.044,3.044,0,0,0-2.139,1.084,4.1,4.1,0,0,0-.965,3,3.853,3.853,0,0,0,1.436,2.656,3.215,3.215,0,0,0,2.587.566c1-.355,1.676-1.383,2.736-1.523l.045.183a4.021,4.021,0,0,1-2.175,1.994,4.138,4.138,0,0,1-3.075-.159,4.093,4.093,0,0,1-2.114-2.418,5,5,0,0,1,.212-3.827A4.455,4.455,0,0,1,920.712,962.025Z" transform="translate(-14410.255 -13011.666)" fill="#999799"/>
    <path id="Path_91" data-name="Path 91" d="M1358.115,961.994a4.561,4.561,0,0,1,2.8.609,2.752,2.752,0,0,1,1.287,1.594l-.132.174c-.884.01-1.128-.71-1.74-1.188a2.316,2.316,0,0,0-1.733-.393,3.524,3.524,0,0,0-2.385,1.336,3.78,3.78,0,0,0-.818,2.772,4.332,4.332,0,0,0,1.6,2.678,3.179,3.179,0,0,0,2.473.5c.95-.36,1.742-1.42,2.744-1.5l.026.185a3.99,3.99,0,0,1-2.238,1.986,4.134,4.134,0,0,1-3.136-.241,4.211,4.211,0,0,1-2.01-2.492,5.077,5.077,0,0,1,.348-3.91A4.372,4.372,0,0,1,1358.115,961.994Z" transform="translate(-14793.118 -13011.646)" fill="#999799"/>
    <path id="Path_92" data-name="Path 92" d="M1076.559,961.9a2.955,2.955,0,0,1,1.64.221,1.966,1.966,0,0,1,1.027,1.244,1.224,1.224,0,0,1-.052.965c-.843-.021-.875-1.213-1.536-1.637a1.411,1.411,0,0,0-.861.038,1.484,1.484,0,0,0-.886.783c-1,2.088,2.945,2.121,3.592,3.941a2.948,2.948,0,0,1-.265,2.22,2.6,2.6,0,0,1-1.833,1.235c-.167-.007-.333-.017-.5-.041a2.386,2.386,0,0,1-1.741-1.1,1.635,1.635,0,0,1-.381-1.179c.049-.184.095-.172.243-.272.845.1.711,1.441,1.888,1.762a1.333,1.333,0,0,0,.966-.187,2.409,2.409,0,0,0,.989-1.266c.364-1.607-3.018-2.252-3.719-3.493a2.028,2.028,0,0,1-.134-1.658A2.676,2.676,0,0,1,1076.559,961.9Z" transform="translate(-14548.074 -13011.555)" fill="#999799"/>
    <path id="Path_93" data-name="Path 93" d="M999.218,961.86a3.129,3.129,0,0,1,1.279.076,2.829,2.829,0,0,1,1.5,1.529.653.653,0,0,1-.06.635l-.327.086c-.347-.164-.387-.3-.581-.624a1.894,1.894,0,0,0-.632-.782,1.307,1.307,0,0,0-1.019-.108,1.76,1.76,0,0,0-.9.886c-.861,1.754,3.12,2.182,3.7,4.009a2.689,2.689,0,0,1-.291,2.077,2.571,2.571,0,0,1-1.839,1.222,3.28,3.28,0,0,1-1.1-.183,3.122,3.122,0,0,1-1.512-1.617.766.766,0,0,1,.024-.7c1-.381.771,1.206,1.927,1.628a1.385,1.385,0,0,0,1.119-.123,1.76,1.76,0,0,0,.851-1.159c.569-2.238-2.749-2.058-3.6-3.51a2.121,2.121,0,0,1-.051-1.736A2.5,2.5,0,0,1,999.218,961.86Z" transform="translate(-14480.327 -13011.518)" fill="#999799"/>
    <path id="Path_94" data-name="Path 94" d="M778.377,961.905l.108-.008a2.549,2.549,0,0,1,2.041.543,2.108,2.108,0,0,1,.63,1.408.5.5,0,0,1-.189.5c-.829-.12-.779-1.209-1.434-1.658a1.379,1.379,0,0,0-.948.062,1.519,1.519,0,0,0-.873.856c-.869,1.935,3.048,2.08,3.646,3.957a2.582,2.582,0,0,1-1.943,3.318,2.77,2.77,0,0,1-1.506-.286,3.092,3.092,0,0,1-1.336-1.642c-.06-.285-.015-.331.129-.564.959-.291.873,1.264,1.8,1.614a1.5,1.5,0,0,0,1.165-.082,2.038,2.038,0,0,0,.99-1.283c.448-1.739-2.939-2.186-3.664-3.484a2.153,2.153,0,0,1-.13-1.638A2.619,2.619,0,0,1,778.377,961.905Z" transform="translate(-14286.991 -13011.562)" fill="#999799"/>
    <path id="Path_95" data-name="Path 95" d="M1491.4,961.843a3.561,3.561,0,0,1,1.162.044,2.071,2.071,0,0,1,1.342.988,1.916,1.916,0,0,1,.243,1.235l-.28.091c-.67-.26-.693-1.089-1.284-1.439a1.206,1.206,0,0,0-.9-.124,1.692,1.692,0,0,0-1,.918c-.844,1.746,3.042,2.164,3.653,3.939a2.719,2.719,0,0,1-.255,2.133,2.674,2.674,0,0,1-1.854,1.227c-.182-.011-.362-.025-.543-.051a2.544,2.544,0,0,1-1.755-1.21,1.364,1.364,0,0,1-.306-1.182l.228-.143c.85.016.615,1.274,1.677,1.7a1.315,1.315,0,0,0,1.121-.111,2.223,2.223,0,0,0,1.042-1.238c.463-1.647-3.074-2.3-3.74-3.6a2.063,2.063,0,0,1-.106-1.618A2.814,2.814,0,0,1,1491.4,961.843Z" transform="translate(-14911.288 -13011.504)" fill="#999799"/>
    <path id="Path_96" data-name="Path 96" d="M1135.216,962.531c1.373-.011,3.077-.227,4.35.323l.037.191a8.934,8.934,0,0,1-3.587.311l-.005,3.063a27.635,27.635,0,0,1,2.971-.006c.311.043.4.221.56.454l-.052.268c-.856.433-2.4-.083-3.393.213l-.1.269.022,2.851c.992,0,2.854-.2,3.672.381a.722.722,0,0,1-.061.063c-.814.648-3.455.363-4.444.352Z" transform="translate(-14600.999 -13012.085)" fill="#999799"/>
    <path id="Path_97" data-name="Path 97" d="M1436.931,962.449c.838,0,3.788-.232,4.334.177l.022.359c-.636.548-2.647.29-3.52.288-.027,1.021-.007,2.048-.009,3.07.792-.012,2.535-.255,3.2.12.238.133.261.159.335.417-.588.652-2.521.162-3.406.35l-.144.227c-.007.977.024,1.958.037,2.935a11.251,11.251,0,0,1,3.532.261l.049.19c-.968.637-3.323.347-4.433.331Z" transform="translate(-14865.186 -13012.001)" fill="#999799"/>
    <path id="Path_98" data-name="Path 98" d="M1254.667,969.6c.479-1.449,2.212-6.927,3.069-7.761.161.023.21-.014.306.141.22.356.034.673-.082,1.03a65.437,65.437,0,0,1-2.9,7.5.881.881,0,0,1-.63.134c-.549-.341-3.06-7.566-3.425-8.666a1.889,1.889,0,0,1,.844.08C1252.587,963.2,1254.082,967.978,1254.667,969.6Z" transform="translate(-14702.396 -13011.525)" fill="#999799"/>
    <path id="Path_99" data-name="Path 99" d="M540.182,962.292a2.145,2.145,0,0,1,.681.188c.277,1.921.057,5.659.094,7.828.693.024,1.387-.025,2.08-.032a1.516,1.516,0,0,1,1.171.314l-.026.5-4.052,0Q540.225,966.694,540.182,962.292Z" transform="translate(-14080 -13011.921)" fill="#999799"/>
    <path id="Path_100" data-name="Path 100" d="M747.427,962.3a2.914,2.914,0,0,1,.778.168,18.952,18.952,0,0,1,.062,3.206l.011,5.5a1.867,1.867,0,0,1-.781-.181C747.176,969.379,747.422,964.285,747.427,962.3Z" transform="translate(-14261.414 -13011.928)" fill="#999799"/>
    <path id="Path_105" data-name="Path 105" d="M747.427,962.3a2.914,2.914,0,0,1,.778.168,18.952,18.952,0,0,1,.062,3.206l.011,5.5a1.867,1.867,0,0,1-.781-.181C747.176,969.379,747.422,964.285,747.427,962.3Z" transform="translate(-14243.895 -13011.928)" fill="#999799"/>
    <path id="Path_101" data-name="Path 101" d="M1329.168,962.191a3.093,3.093,0,0,1,.729.192,86.123,86.123,0,0,1,.042,8.658l-.6-.06C1328.957,970.462,1329.165,963.382,1329.168,962.191Z" transform="translate(-14770.783 -13011.832)" fill="#999799"/>
    <path id="Union_1" data-name="Union 1" d="M2.018,8.769c-.278-.475-.1-5.351-.094-6.252q-.064-.8-.1-1.612A2.879,2.879,0,0,1,.156.72L0,.487A.9.9,0,0,1,.712.117a7.171,7.171,0,0,1,3.793.3l-.068.3A5.007,5.007,0,0,1,2.579.9c-.034.6-.041,1.217-.113,1.813.032.95.234,5.536-.173,6.082Z" transform="translate(-13503.5 -12049.638)" fill="#999799"/>
  </g>
</svg>
