<svg xmlns="http://www.w3.org/2000/svg" width="313.57" height="190.976" viewBox="0 0 313.57 190.976">
  <g id="Group_4461" data-name="Group 4461" transform="translate(13539.869 12115.574)">
    <path id="Subtraction_3" data-name="Subtraction 3" d="M23.962,54.278a25.542,25.542,0,0,1-7.062-.914,20.955,20.955,0,0,1-3.33-1.258,21.17,21.17,0,0,1-3.188-1.9A22.864,22.864,0,0,1,3.607,42.4a30.166,30.166,0,0,1-3.2-9.884,36.726,36.726,0,0,1-.4-6.166,34.851,34.851,0,0,1,.674-6.2A30.582,30.582,0,0,1,2.51,14.214,26.166,26.166,0,0,1,5.577,8.847,22.211,22.211,0,0,1,8.731,5.415a20.557,20.557,0,0,1,3.621-2.537A22.825,22.825,0,0,1,16.43,1.14,29.477,29.477,0,0,1,20.956.1c.96-.069,1.894-.1,2.778-.1a26.044,26.044,0,0,1,7.122.907,20.791,20.791,0,0,1,6.576,3.167,22.711,22.711,0,0,1,6.732,7.8,28.678,28.678,0,0,1,2.021,4.777,33.177,33.177,0,0,1,1.195,5.071,36.072,36.072,0,0,1-.225,12.335,30.741,30.741,0,0,1-1.791,5.949,25.589,25.589,0,0,1-3.018,5.35,22.073,22.073,0,0,1-3.165,3.455,20.652,20.652,0,0,1-3.647,2.556,23,23,0,0,1-4.108,1.751,29.517,29.517,0,0,1-4.548,1.04C25.872,54.238,24.891,54.278,23.962,54.278ZM23.8,3.357a26.837,26.837,0,0,0-3.194.2,23.684,23.684,0,0,0-3.795,1.175A19.17,19.17,0,0,0,13.455,6.5a18,18,0,0,0-2.912,2.418A20,20,0,0,0,8.07,12.04a24.928,24.928,0,0,0-2.48,5.049,28.545,28.545,0,0,0-1.373,5.506,31.112,31.112,0,0,0,.418,11.259A28.124,28.124,0,0,0,5.943,38.1a24.472,24.472,0,0,0,2,3.958,19.129,19.129,0,0,0,6.195,6.24,17.615,17.615,0,0,0,4.687,1.985,19.8,19.8,0,0,0,5.066.65,20.568,20.568,0,0,0,3.179-.248,21.715,21.715,0,0,0,3.739-1.058,18.614,18.614,0,0,0,3.337-1.686A17.891,17.891,0,0,0,37.064,45.6a19.553,19.553,0,0,0,2.477-3.014,24.369,24.369,0,0,0,2.517-4.926A28.5,28.5,0,0,0,43.5,32.248a31.209,31.209,0,0,0-.175-11.108,28.621,28.621,0,0,0-1.212-4.3,25.019,25.019,0,0,0-1.908-4.034A19.659,19.659,0,0,0,34.18,6.328a17.373,17.373,0,0,0-5.012-2.281A20.279,20.279,0,0,0,23.8,3.357Z" transform="translate(-13327.412 -12008.813)" fill="#1963ac"/>
    <path id="Subtraction_2" data-name="Subtraction 2" d="M23.078,54.391a25.169,25.169,0,0,1-6.886-.923A20.593,20.593,0,0,1,9.9,50.484a21.328,21.328,0,0,1-6.247-7.049A26.153,26.153,0,0,1,1.722,39.1,29.178,29.178,0,0,1,.559,34.492,40.242,40.242,0,0,1,.554,21.156,33.14,33.14,0,0,1,2.34,14.677,26.73,26.73,0,0,1,5.48,8.85,21.841,21.841,0,0,1,8.45,5.485a19.851,19.851,0,0,1,3.424-2.517A24.064,24.064,0,0,1,20.093.13,28.85,28.85,0,0,1,23.043,0c.24,0,.49,0,.766.005a23.336,23.336,0,0,1,8.385,1.614,19.989,19.989,0,0,1,7.072,4.747,21.345,21.345,0,0,1,3.387,4.675A25.316,25.316,0,0,1,44.73,16.3a40.371,40.371,0,0,1,1.25,11.374l-42.11.013A33.5,33.5,0,0,0,4.154,32.2a29.376,29.376,0,0,0,.938,4.455,22.282,22.282,0,0,0,4.145,7.989,17.53,17.53,0,0,0,5.44,4.407,17.754,17.754,0,0,0,6.733,1.911c.623.052,1.243.078,1.845.078a19.566,19.566,0,0,0,3.593-.326A18.431,18.431,0,0,0,30.2,49.75a22.275,22.275,0,0,0,6.159-3.758,21.637,21.637,0,0,0,3.334-4.9,31.9,31.9,0,0,0,2.041-5.562l.2,0h0c.3,0,.575-.008.859-.008a12.285,12.285,0,0,1,2.415.2c.011.026.022.052.034.077a.905.905,0,0,1,.061.157,4.864,4.864,0,0,1-.174,2.181A20.568,20.568,0,0,1,44.141,41a29.823,29.823,0,0,1-2.512,4.818,18.785,18.785,0,0,1-5.847,5.4,22.115,22.115,0,0,1-7.508,2.71A30.313,30.313,0,0,1,23.078,54.391ZM22.564,3.344H22.33a19.805,19.805,0,0,0-7.105,1.988A17.038,17.038,0,0,0,12.2,7.305a19.279,19.279,0,0,0-2.694,2.7,23.346,23.346,0,0,0-3.8,6.725,32.305,32.305,0,0,0-1.752,7.548c4.656.056,9.395.085,14.086.085,2.013,0,4.018-.005,5.958-.015l18.069-.032a36.139,36.139,0,0,0-.645-4.68,26.236,26.236,0,0,0-1.33-4.44,20.547,20.547,0,0,0-2.177-4.05,18.591,18.591,0,0,0-3.185-3.51,17.541,17.541,0,0,0-5.692-3.251A19.833,19.833,0,0,0,22.564,3.344Z" transform="translate(-13489.519 -12008.855)" fill="#1963ac"/>
    <path id="Path_78" data-name="Path 78" d="M893.149,772.714c1.749-.047,3.5-.039,5.252-.055,4.593,15.928,9.505,31.777,14.276,47.653,5.247-15.731,9.849-31.765,14.658-47.639l4.34-.023-1.25,3.987c-5.335,15.909-10.214,31.977-15.464,47.915-1.615.037-3.236.024-4.85.031-1.418-5.568-3.315-11.1-4.983-16.6l-9.33-30.544L881.366,824.59l-4.954-.018c-4.931-17.389-11.014-34.561-16.4-51.828,1.356-.1,2.739-.077,4.1-.1,5.289,15.82,9.89,31.947,14.872,47.871,1.4-5.713,3.288-11.368,4.97-17.006Z" transform="translate(-14298.414 -12780.295)" fill="#1963ac"/>
    <path id="Path_79" data-name="Path 79" d="M1408.9,768.968a32.556,32.556,0,0,1,3.372-.158c4.647-.008,9.557,1.249,12.907,4.635a16.56,16.56,0,0,1,4.162,8.006c1.323,5.71.844,12.028.841,17.86L1430.164,822l-3.9-.042,0-22.129c.019-4.842.324-9.885-.222-14.7a17.684,17.684,0,0,0-1.646-5.914,12.057,12.057,0,0,0-7.055-6.211c-4.958-1.648-10.373-.766-14.959,1.486a18.676,18.676,0,0,0-3.578,2.753c-7.2,7.282-6.056,18.241-6.04,27.631l.041,17.146-3.87.032V770.047l3.86.018-.044,11.144a26.494,26.494,0,0,1,2.376-4.215C1398.554,772.141,1403.182,769.968,1408.9,768.968Z" transform="translate(-14659.553 -12777.68)" fill="#1963ac"/>
    <path id="Path_80" data-name="Path 80" d="M560.329,768.984q.995-.1,2-.116c5.167-.111,10.459.733,14.289,4.509a16.417,16.417,0,0,1,4.288,8.1c1.345,5.844.817,12.533.807,18.5l.029,22.043-3.971.035c.061-8.083,1.145-36.322-1.465-42.144a12.571,12.571,0,0,0-7.1-6.719c-4.811-1.808-10.124-1.005-14.708,1.022a18.817,18.817,0,0,0-4.079,3.017c-7.223,7.218-6.122,18.2-6.108,27.56l.041,17.23-3.821.069.008-34.4c0-5.6-.481-11.5.094-17.056.809-.73,2.375-.5,3.431-.453.678,1.024.344,9.29.362,11.174a22.118,22.118,0,0,1,2.157-4.2C549.938,772.266,554.636,770.06,560.329,768.984Z" transform="translate(-14080.144 -12777.714)" fill="#1963ac"/>
    <g id="Group_12" data-name="Group 12" transform="translate(-13423.832 -12115.574)">
      <path id="Path_77" data-name="Path 77" d="M961.088,443.072c2.63,2.654,7.415,11.723,9.762,15.374l34.274,53.984a50.907,50.907,0,0,1-10.842,6.878c-.907-.54-39.895-62.556-44.143-69.211A56.412,56.412,0,0,1,961.088,443.072Z" transform="translate(-936.116 -439.695)" fill="#999799"/>
      <path id="Path_81" data-name="Path 81" d="M917.679,471.939c.775.941.4,51.736.4,58.372a58.978,58.978,0,0,1-5.29-6.476,41.533,41.533,0,0,1-6.831-21.436C905.564,490.743,909.826,480.432,917.679,471.939Z" transform="translate(-905.933 -459.405)" fill="#1963ac"/>
      <path id="Path_82" data-name="Path 82" d="M1129.627,471.743c5.25,4.153,9.073,12.24,10.719,18.562,2.982,11.439.818,22.78-5.145,32.825a53.044,53.044,0,0,1-5.45,6.867c-.336-7.7-.111-15.5-.121-23.213C1129.617,495.106,1129.5,483.419,1129.627,471.743Z" transform="translate(-1058.627 -459.271)" fill="#00a99c"/>
      <path id="Path_83" data-name="Path 83" d="M959.029,595.7c1.9,2.1,3.342,5.309,4.77,7.776,4.478,7.728,8.827,15.44,12.811,23.439a53.123,53.123,0,0,1-10.182-1.05,44.611,44.611,0,0,1-19.207-10.093C951.194,609.107,955.27,602.482,959.029,595.7Z" transform="translate(-934.124 -543.906)" fill="#1963ac"/>
      <path id="Path_84" data-name="Path 84" d="M1033.75,432.426c11.5.264,20.825,3.769,29.5,11.327-2.347,4.053-4.793,8.06-7.188,12.086l-4.777,7.943C1045.233,453.415,1039.244,443.107,1033.75,432.426Z" transform="translate(-993.205 -432.426)" fill="#00a99c"/>
    </g>
    <path id="Subtraction_1" data-name="Subtraction 1" d="M11.148,22.865A10.848,10.848,0,0,1,6.341,21.9a10.6,10.6,0,0,1-3.466-2.6A11.283,11.283,0,0,1,.687,15.546a12.337,12.337,0,0,1,.591-9.527,10.444,10.444,0,0,1,3.1-3.767A15.364,15.364,0,0,1,8.768.059C9.378.019,9.91,0,10.392,0a12.455,12.455,0,0,1,2.723.269,9.388,9.388,0,0,1,2.637,1.02,11.194,11.194,0,0,1,5.212,6.877,12.856,12.856,0,0,1,.343,4.823,12.35,12.35,0,0,1-.523,2.37,11.5,11.5,0,0,1-.992,2.214,10.643,10.643,0,0,1-3.1,3.388,12.726,12.726,0,0,1-4.206,1.861C11.994,22.851,11.557,22.865,11.148,22.865ZM10.027,2.007h0A10.708,10.708,0,0,0,6.464,3.326a8.821,8.821,0,0,0-2.74,2.669A9.454,9.454,0,0,0,2.284,9.649a10.563,10.563,0,0,0,.069,3.934,9.58,9.58,0,0,0,1.365,3.295,8.88,8.88,0,0,0,2.5,2.538,8.521,8.521,0,0,0,4.946,1.409c.21,0,.432-.005.66-.016a11.7,11.7,0,0,0,3.567-1.552A8.5,8.5,0,0,0,18.012,16.4a10.016,10.016,0,0,0,.93-7.639,9.568,9.568,0,0,0-1.627-3.312,8.889,8.889,0,0,0-2.79-2.412,9.47,9.47,0,0,0-4.5-1.033Z" transform="translate(-13527.235 -11947.601)" fill="#999799"/>
    <path id="Path_87" data-name="Path 87" d="M1120.211,721.816c1.281-.023,2.569.01,3.854.017l-.029,16.152c2.972-.006,8.733-.856,11.242.585a2.18,2.18,0,0,1,.143.642,2.052,2.052,0,0,1-.521,1.861c-3.423.632-7.388.211-10.88.191L1124,766.271c0,4.134-.219,8.406.124,12.525.124,1.508.33,3.8,1.281,5.034,2.192,2.848,5.853,2.221,8.933,2.782.85.155.825.241,1.272.941l-.374,2a3.942,3.942,0,0,1-2.525.461c-3.581,0-7.268-.469-9.9-3.147a9.612,9.612,0,0,1-2.338-5.412c-.739-4.5-.323-9.539-.317-14.118l.048-26.07c-2.021-.031-8.248.752-9.627-.487a2.786,2.786,0,0,1,.32-2.122c1.979-1.45,6.792-.722,9.285-.688Z" transform="translate(-14469.454 -12745.589)" fill="#1963ac"/>
    <path id="Path_88" data-name="Path 88" d="M668.469,962c2.463-.165,5.234-.113,7.376,1.283,1.332.869,3.611,2.977,3.928,4.578l-.34.332c-2.447.081-3.412-2.1-5.236-3.359a6.955,6.955,0,0,0-5.256-.739,9.089,9.089,0,0,0-5.777,4.223,9.788,9.788,0,0,0-1.129,7.527,9.9,9.9,0,0,0,4.713,6.049,8.389,8.389,0,0,0,6.334.472c3.022-.945,4.453-3.394,5.82-6.03l-3.709-.022c-1.564,0-6.637.45-7.687-.371-.051-.752-.13-.825.307-1.421,4.142-.812,9.214-.241,13.473-.2a17.334,17.334,0,0,1-1.253,4.295,10.968,10.968,0,0,1-6.163,5.83,10.441,10.441,0,0,1-7.806-.66,11.994,11.994,0,0,1-5.2-15.9A12.332,12.332,0,0,1,668.469,962Z" transform="translate(-14161.595 -12909.546)" fill="#999799"/>
    <path id="Path_89" data-name="Path 89" d="M1191.556,962.695c3.048-.035,6.871-.459,9.716.776a6.584,6.584,0,0,1,3.787,3.916,7.473,7.473,0,0,1-.586,5.66c-1.206,2.311-2.712,2.971-5.047,3.758,1.17,1.662,5.006,6,4.869,7.949-.263.213-.409.47-.774.4-2.344-.438-6.3-7.765-7.673-9.887.786-.593,1.792-.434,2.766-.479a6.327,6.327,0,0,0,2.814-1.165,4.929,4.929,0,0,0,2.043-3.442,4.766,4.766,0,0,0-1.459-3.385c-2.319-2.361-5.478-2.059-8.489-2.018-.006,2.835.508,18.958-.46,20.1l-1.047-.06C1190.991,983.324,1191.556,965.6,1191.556,962.695Z" transform="translate(-14524.682 -12909.994)" fill="#999799"/>
    <path id="Path_90" data-name="Path 90" d="M925.947,962.061a11.558,11.558,0,0,1,7.4,1.517c1.4.9,3.061,2.491,3.436,4.148-1,.667-6.4-3.74-9.395-3.725a7.759,7.759,0,0,0-5.451,2.762,10.454,10.454,0,0,0-2.459,7.653,9.818,9.818,0,0,0,3.66,6.77,8.194,8.194,0,0,0,6.594,1.443c2.55-.9,4.271-3.524,6.974-3.883l.114.466a10.248,10.248,0,0,1-5.545,5.082,10.546,10.546,0,0,1-7.837-.406,10.431,10.431,0,0,1-5.388-6.164,12.735,12.735,0,0,1,.541-9.755C920.188,964.733,922.622,963.179,925.947,962.061Z" transform="translate(-14337.549 -12909.588)" fill="#999799"/>
    <path id="Path_91" data-name="Path 91" d="M1363.532,962.017a11.626,11.626,0,0,1,7.144,1.552,7.017,7.017,0,0,1,3.28,4.062l-.336.444c-2.252.025-2.874-1.81-4.434-3.028a5.9,5.9,0,0,0-4.416-1,8.981,8.981,0,0,0-6.077,3.405,9.635,9.635,0,0,0-2.084,7.065,11.042,11.042,0,0,0,4.07,6.826,8.1,8.1,0,0,0,6.3,1.285c2.421-.917,4.441-3.619,6.995-3.822l.066.473a10.168,10.168,0,0,1-5.7,5.063,10.536,10.536,0,0,1-7.993-.615,10.733,10.733,0,0,1-5.123-6.351,12.94,12.94,0,0,1,.888-9.965C1357.8,964.337,1360.268,962.973,1363.532,962.017Z" transform="translate(-14636.124 -12909.574)" fill="#999799"/>
    <path id="Path_92" data-name="Path 92" d="M1079.375,961.938a7.532,7.532,0,0,1,4.181.563,5.011,5.011,0,0,1,2.617,3.171,3.118,3.118,0,0,1-.134,2.46c-2.148-.053-2.23-3.092-3.914-4.172a3.6,3.6,0,0,0-2.2.1,3.782,3.782,0,0,0-2.258,2c-2.538,5.323,7.5,5.406,9.155,10.045a7.513,7.513,0,0,1-.676,5.659c-1.034,1.938-2.687,2.585-4.673,3.147-.425-.019-.85-.045-1.272-.1a6.081,6.081,0,0,1-4.438-2.807,4.167,4.167,0,0,1-.971-3c.124-.469.241-.438.618-.694,2.154.25,1.812,3.673,4.812,4.492a3.4,3.4,0,0,0,2.462-.476,6.14,6.14,0,0,0,2.522-3.226c.927-4.095-7.692-5.739-9.478-8.9a5.168,5.168,0,0,1-.343-4.226C1076.051,963.854,1077.539,962.9,1079.375,961.938Z" transform="translate(-14445.026 -12909.501)" fill="#999799"/>
    <path id="Path_93" data-name="Path 93" d="M1002.09,961.9a7.976,7.976,0,0,1,3.261.194,7.212,7.212,0,0,1,3.813,3.9,1.665,1.665,0,0,1-.152,1.619l-.834.22c-.885-.418-.987-.757-1.481-1.592a4.828,4.828,0,0,0-1.612-1.993,3.331,3.331,0,0,0-2.6-.276,4.486,4.486,0,0,0-2.3,2.258c-2.193,4.471,7.952,5.56,9.437,10.218a6.854,6.854,0,0,1-.742,5.294c-1.082,1.938-2.661,2.582-4.688,3.115a8.36,8.36,0,0,1-2.795-.466,7.957,7.957,0,0,1-3.854-4.12,1.954,1.954,0,0,1,.062-1.773c2.561-.97,1.965,3.074,4.912,4.149a3.531,3.531,0,0,0,2.852-.314,4.485,4.485,0,0,0,2.169-2.953c1.45-5.7-7.007-5.247-9.18-8.946a5.4,5.4,0,0,1-.13-4.424C998.927,963.739,1000.117,962.976,1002.09,961.9Z" transform="translate(-14392.193 -12909.473)" fill="#999799"/>
    <path id="Path_94" data-name="Path 94" d="M781.212,961.941l.275-.021c1.865-.131,3.776.021,5.2,1.383a5.374,5.374,0,0,1,1.6,3.588,1.264,1.264,0,0,1-.482,1.286c-2.113-.3-1.985-3.083-3.654-4.226a3.514,3.514,0,0,0-2.417.158,3.871,3.871,0,0,0-2.225,2.182c-2.214,4.931,7.768,5.3,9.293,10.084a6.58,6.58,0,0,1-4.952,8.457,7.058,7.058,0,0,1-3.839-.729,7.881,7.881,0,0,1-3.4-4.184c-.153-.726-.038-.844.329-1.437,2.444-.742,2.226,3.223,4.588,4.114a3.812,3.812,0,0,0,2.97-.209,5.194,5.194,0,0,0,2.523-3.271c1.141-4.432-7.492-5.572-9.338-8.88a5.488,5.488,0,0,1-.332-4.174C777.957,963.909,779.378,962.964,781.212,961.941Z" transform="translate(-14241.421 -12909.508)" fill="#999799"/>
    <path id="Path_95" data-name="Path 95" d="M1494.2,961.884a9.084,9.084,0,0,1,2.963.111,5.278,5.278,0,0,1,3.419,2.517,4.883,4.883,0,0,1,.619,3.147l-.714.232c-1.707-.663-1.767-2.774-3.274-3.667a3.076,3.076,0,0,0-2.293-.317,4.313,4.313,0,0,0-2.547,2.339c-2.151,4.45,7.753,5.516,9.31,10.039a6.929,6.929,0,0,1-.651,5.437c-1.069,1.91-2.737,2.582-4.726,3.128-.463-.029-.923-.063-1.383-.13a6.483,6.483,0,0,1-4.473-3.083,3.475,3.475,0,0,1-.781-3.013l.581-.365c2.167.041,1.567,3.248,4.273,4.345a3.351,3.351,0,0,0,2.858-.282,5.666,5.666,0,0,0,2.655-3.156c1.18-4.2-7.835-5.852-9.532-9.176a5.258,5.258,0,0,1-.27-4.125C1490.916,963.869,1492.423,962.813,1494.2,961.884Z" transform="translate(-14728.278 -12909.462)" fill="#999799"/>
    <path id="Path_96" data-name="Path 96" d="M1135.257,962.609c3.5-.027,7.842-.578,11.087.822l.1.487c-2.573,1.214-6.351.811-9.142.794l-.013,7.806c2.417.057,5.2-.344,7.572-.015.793.111,1.012.565,1.427,1.158l-.133.683c-2.182,1.1-6.113-.212-8.647.542l-.244.685.057,7.267c2.528,0,7.274-.5,9.358.971a1.87,1.87,0,0,1-.156.162c-2.075,1.653-8.806.926-11.328.9Z" transform="translate(-14486.299 -12909.916)" fill="#999799"/>
    <path id="Path_97" data-name="Path 97" d="M1436.933,962.549c2.135,0,9.656-.591,11.046.452l.057.915c-1.621,1.4-6.747.74-8.971.734-.07,2.6-.019,5.22-.022,7.823,2.018-.029,6.462-.649,8.162.306a1.276,1.276,0,0,1,.854,1.063c-1.5,1.663-6.427.413-8.682.892l-.368.577c-.019,2.49.061,4.99.1,7.48,3.026-.044,6.074-.238,9,.666l.124.485c-2.468,1.624-8.469.885-11.3.844Z" transform="translate(-14692.324 -12909.851)" fill="#999799"/>
    <path id="Path_98" data-name="Path 98" d="M1260.345,981.622c1.221-3.692,5.637-17.655,7.822-19.781.409.057.536-.037.78.359.562.907.086,1.717-.209,2.625-2.17,5.8-4.539,13.838-7.4,19.107a2.245,2.245,0,0,1-1.605.343c-1.4-.869-7.8-19.285-8.729-22.088a4.815,4.815,0,0,1,2.151.2C1255.044,965.315,1258.854,977.483,1260.345,981.622Z" transform="translate(-14565.375 -12909.479)" fill="#999799"/>
    <path id="Path_99" data-name="Path 99" d="M540.261,962.292a5.47,5.47,0,0,1,1.737.478c.705,4.9.146,14.424.239,19.953,1.765.06,3.536-.063,5.3-.083a3.864,3.864,0,0,1,2.985.8l-.066,1.278-10.326.01Q540.371,973.513,540.261,962.292Z" transform="translate(-14080 -12909.788)" fill="#999799"/>
    <path id="Path_100" data-name="Path 100" d="M747.574,962.3a7.425,7.425,0,0,1,1.984.429c.455,2.559.164,5.554.158,8.17l.028,14.014a4.757,4.757,0,0,1-1.99-.46C746.934,980.34,747.561,967.358,747.574,962.3Z" transform="translate(-14221.476 -12909.792)" fill="#999799"/>
    <path id="Path_105" data-name="Path 105" d="M747.574,962.3a7.425,7.425,0,0,1,1.984.429c.455,2.559.164,5.554.158,8.17l.028,14.014a4.757,4.757,0,0,1-1.99-.46C746.934,980.34,747.561,967.358,747.574,962.3Z" transform="translate(-14176.823 -12909.792)" fill="#999799"/>
    <path id="Path_101" data-name="Path 101" d="M1329.261,962.191a7.887,7.887,0,0,1,1.859.489c.72,6.817.127,15.1.108,22.068l-1.535-.152C1328.722,983.272,1329.252,965.226,1329.261,962.191Z" transform="translate(-14618.705 -12909.719)" fill="#999799"/>
    <path id="Union_1" data-name="Union 1" d="M5.143,22.349C4.435,21.137,4.9,8.711,4.9,6.415q-.162-2.052-.249-4.108c-1.461.056-2.963.31-4.257-.472L0,1.242A2.292,2.292,0,0,1,1.816.3c2.7-.477,7.18-.491,9.668.768l-.172.767a12.763,12.763,0,0,1-4.737.472c-.087,1.529-.105,3.1-.288,4.621.081,2.421.6,14.109-.442,15.5Z" transform="translate(-13447.174 -11947.519)" fill="#999799"/>
  </g>
</svg>
