<svg xmlns="http://www.w3.org/2000/svg" width="13.125" height="13.125" viewBox="0 0 13.125 13.125">
  <path id="Path_118" data-name="Path 118" d="M532.682,543.887a3.369,3.369,0,1,1,0,6.738,3.369,3.369,0,1,1,0-6.738Zm0,5.566a2.183,2.183,0,1,0-2.2-2.2A2.194,2.194,0,0,0,532.682,549.453Zm4.278-5.683a.791.791,0,1,1-.791-.791A.788.788,0,0,1,536.96,543.77Zm2.226.791c.059,1.084.059,4.335,0,5.419a4,4,0,0,1-1.055,2.754,3.949,3.949,0,0,1-2.753,1.055c-1.084.059-4.336.059-5.42,0a3.62,3.62,0,0,1-3.809-3.809c-.059-1.084-.059-4.335,0-5.419a3.949,3.949,0,0,1,1.055-2.754,4,4,0,0,1,2.754-1.055c1.084-.059,4.336-.059,5.42,0a3.62,3.62,0,0,1,3.808,3.809Zm-1.406,6.562a14.047,14.047,0,0,0,.264-3.867,14.206,14.206,0,0,0-.264-3.867,2.209,2.209,0,0,0-1.231-1.231,14.2,14.2,0,0,0-3.867-.263,14.045,14.045,0,0,0-3.867.263,2.263,2.263,0,0,0-1.26,1.231,14.2,14.2,0,0,0-.263,3.867,14.045,14.045,0,0,0,.263,3.867,2.225,2.225,0,0,0,1.26,1.26,14.045,14.045,0,0,0,3.867.263,14.2,14.2,0,0,0,3.867-.263A2.174,2.174,0,0,0,537.78,551.123Z" transform="translate(-526.105 -540.708)" fill="#fff"/>
</svg>
