<svg xmlns="http://www.w3.org/2000/svg" width="25.025" height="18.769" viewBox="0 0 25.025 18.769">
  <path id="Path_277" data-name="Path 277" d="M970.354,91.5a2.379,2.379,0,0,1,2.346,2.346v14.076a2.346,2.346,0,0,1-2.346,2.346H950.021a2.316,2.316,0,0,1-2.346-2.346V93.846a2.346,2.346,0,0,1,2.346-2.346Zm0,2.346H950.021v2c1.075.929,2.835,2.3,6.549,5.229.831.636,2.443,2.2,3.617,2.151,1.124.049,2.737-1.515,3.568-2.151,3.715-2.932,5.474-4.3,6.6-5.229Zm-20.332,14.076h20.332V98.88c-1.124.88-2.737,2.15-5.132,4.057-1.124.831-2.981,2.688-5.034,2.639-2.1.049-4.008-1.808-5.083-2.639-2.4-1.907-4.008-3.177-5.083-4.057Z" transform="translate(-947.675 -91.5)" fill="#fff"/>
</svg>
