<svg xmlns="http://www.w3.org/2000/svg" width="30" height="26.25" viewBox="0 0 30 26.25">
  <path id="Path_180" data-name="Path 180" d="M432.188,2814.88a2.852,2.852,0,0,1,2.812,2.81v7.5a2.812,2.812,0,0,1-2.812,2.81h-7.5a2.776,2.776,0,0,1-2.813-2.81v-14.06a9.367,9.367,0,0,1,9.375-9.38h.469a1.43,1.43,0,0,1,1.406,1.41v2.81a1.392,1.392,0,0,1-1.406,1.41h-.469a3.739,3.739,0,0,0-3.75,3.75v3.75Zm-16.876,0a2.852,2.852,0,0,1,2.813,2.81v7.5a2.812,2.812,0,0,1-2.813,2.81h-7.5a2.775,2.775,0,0,1-2.812-2.81v-14.06a9.367,9.367,0,0,1,9.375-9.38h.469a1.43,1.43,0,0,1,1.406,1.41v2.81a1.392,1.392,0,0,1-1.406,1.41h-.469a3.739,3.739,0,0,0-3.75,3.75v3.75Z" transform="translate(-405 -2801.75)" fill="#06c"/>
</svg>
