<svg xmlns="http://www.w3.org/2000/svg" width="44.154" height="33.116" viewBox="0 0 44.154 33.116">
  <path id="Path_292" data-name="Path 292" d="M987.689,91.5a4.2,4.2,0,0,1,4.14,4.14v24.836a4.14,4.14,0,0,1-4.14,4.14H951.815a4.086,4.086,0,0,1-4.14-4.14V95.64a4.14,4.14,0,0,1,4.14-4.14Zm0,4.14H951.815v3.536c1.9,1.638,5,4.053,11.556,9.227,1.466,1.122,4.311,3.882,6.381,3.8,1.984.087,4.829-2.674,6.295-3.8,6.554-5.174,9.659-7.589,11.642-9.227Zm-35.874,24.836h35.874V104.522c-1.983,1.552-4.829,3.794-9.055,7.158-1.983,1.466-5.26,4.742-8.882,4.656-3.709.087-7.071-3.19-8.969-4.656-4.227-3.365-7.072-5.606-8.968-7.158Z" transform="translate(-947.675 -91.5)" fill="#06c"/>
</svg>
