<svg xmlns="http://www.w3.org/2000/svg" width="54.789" height="54.779" viewBox="0 0 54.789 54.779">
  <path id="Path_285" data-name="Path 285" d="M1079.044,2845.692a2.557,2.557,0,0,1-.073,3.652L1047.276,2881a2.331,2.331,0,0,1-3.5,0l-17.965-17.965a2.44,2.44,0,0,1,0-3.652l4.163-4.162a2.452,2.452,0,0,1,3.615,0l11.977,11.867,25.6-25.559a2.454,2.454,0,0,1,3.615,0Zm-34.761,11.356-11.977-11.976a1.888,1.888,0,0,1,0-2.483l4.929-4.82a1.7,1.7,0,0,1,2.337,0l5.988,5.989,16.176-16.25a1.765,1.765,0,0,1,2.446,0l4.82,4.821a1.763,1.763,0,0,1,0,2.446l-22.237,22.274A1.681,1.681,0,0,1,1044.283,2857.048Z" transform="translate(-1024.985 -2827.016)" fill="#00a699"/>
</svg>
