<svg xmlns="http://www.w3.org/2000/svg" width="44.068" height="44.154" viewBox="0 0 44.068 44.154">
  <path id="Path_291" data-name="Path 291" d="M610.537,119.594a2.255,2.255,0,0,1,1.206,1.983v.431l-2.07,8.969a2.023,2.023,0,0,1-1.983,1.552,39.932,39.932,0,0,1-40.014-40.014,2.024,2.024,0,0,1,1.552-1.984l8.969-2.07a3.706,3.706,0,0,0,.431-.086,2.179,2.179,0,0,1,1.984,1.294l4.14,9.659a2.51,2.51,0,0,1,.173.776,2.137,2.137,0,0,1-.777,1.639l-5.259,4.312a31.994,31.994,0,0,0,15.263,15.263l4.313-5.26a2.1,2.1,0,0,1,1.552-.777,2.548,2.548,0,0,1,.862.173Z" transform="translate(-567.675 -88.375)" fill="#06c"/>
</svg>
