<svg xmlns="http://www.w3.org/2000/svg" width="15.661" height="15.66" viewBox="0 0 15.661 15.66">
  <path id="Path_56" data-name="Path 56" d="M204.566,147.877a.393.393,0,0,1-.4.367h-1.581a.377.377,0,0,1-.368-.367V146.3a.4.4,0,0,1,.368-.4h1.581a.408.408,0,0,1,.4.4ZM192.4,158.465a.409.409,0,0,1-.4-.4v-6.654h1.655a3.879,3.879,0,0,0-.074.772,4.706,4.706,0,0,0,9.411,0,3.943,3.943,0,0,0-.074-.772h1.654v6.654a.408.408,0,0,1-.4.4Zm5.882-9.411a3.119,3.119,0,0,1,2.206.919,3.088,3.088,0,1,1-4.412,0A3.12,3.12,0,0,1,198.28,149.054Zm6.286-4.706H191.993a1.507,1.507,0,0,0-1.544,1.543v12.573a1.507,1.507,0,0,0,1.544,1.543h12.572a1.507,1.507,0,0,0,1.544-1.543V145.891a1.507,1.507,0,0,0-1.544-1.543Z" transform="translate(-190.449 -144.348)" fill="#fff"/>
</svg>
