<svg xmlns="http://www.w3.org/2000/svg" width="19.073" height="20.082" viewBox="0 0 19.073 20.082">
  <path id="Path_42" data-name="Path 42" d="M145.944,66.739l-5.961-6.511a7.644,7.644,0,0,0,1.54-2.393,7.578,7.578,0,0,0-.03-5.687,7.435,7.435,0,0,0-4.079-4.079,7.537,7.537,0,1,0,1.824,12.846l5.961,6.511a.536.536,0,0,0,.373.157.579.579,0,0,0,.186-.029.43.43,0,0,0,.167-.108.5.5,0,0,0,.147-.343A.5.5,0,0,0,145.944,66.739ZM128,55.031a6.27,6.27,0,0,1,.52-2.54,6.624,6.624,0,0,1,3.472-3.471,6.464,6.464,0,0,1,5.079,0,6.624,6.624,0,0,1,3.472,3.471,6.463,6.463,0,0,1,0,5.08,6.624,6.624,0,0,1-3.472,3.471,6.464,6.464,0,0,1-5.079,0,6.624,6.624,0,0,1-3.472-3.471A6.27,6.27,0,0,1,128,55.031Z" transform="translate(-127 -47.5)" fill="#fff"/>
</svg>
