<svg xmlns="http://www.w3.org/2000/svg" width="14.97" height="12.159" viewBox="0 0 14.97 12.159">
  <path id="Path_117" data-name="Path 117" d="M484.885,544.209v.41a8.654,8.654,0,0,1-8.731,8.731,8.566,8.566,0,0,1-4.716-1.377,5.749,5.749,0,0,0,.732.058,6.189,6.189,0,0,0,3.809-1.318,3.062,3.062,0,0,1-2.872-2.139,3.876,3.876,0,0,0,.586.059,3.462,3.462,0,0,0,.791-.117,3.081,3.081,0,0,1-2.461-3.018v-.029a3.264,3.264,0,0,0,1.407.381,3.027,3.027,0,0,1-1.377-2.549,2.991,2.991,0,0,1,.41-1.553,8.924,8.924,0,0,0,6.357,3.223,2.923,2.923,0,0,1-.088-.7,3.088,3.088,0,0,1,5.332-2.11A6.474,6.474,0,0,0,486,541.4a3,3,0,0,1-1.348,1.7,5.781,5.781,0,0,0,1.758-.469A6.505,6.505,0,0,1,484.885,544.209Z" transform="translate(-471.438 -541.191)" fill="#fff"/>
</svg>
